<svg height="512" viewBox="0 0 128 128" width="512" xmlns="http://www.w3.org/2000/svg" xmlns:xlink="http://www.w3.org/1999/xlink"><linearGradient id="a" gradientUnits="userSpaceOnUse" x1="103.715" x2="24.285" y1="109.901" y2="30.471"><stop offset="0" stop-color="#fe505f"/><stop offset="1" stop-color="#ffcd38"/></linearGradient><path d="m48.415 65.257a1.75 1.75 0 0 1 3.416-.764c.319 1.431.721 2.894 1.192 4.349a1.75 1.75 0 0 1 -1.126 2.2 1.75 1.75 0 0 1 -2.2-1.126c-.509-1.554-.938-3.123-1.282-4.659zm55.648 22.3a90.276 90.276 0 0 1 12.056 7.07 1.75 1.75 0 0 1 0 2.84 86.52 86.52 0 0 1 -20.439 10.543 1.75 1.75 0 0 1 -1.11-3.319 82.111 82.111 0 0 0 17.393-8.646 90.15 90.15 0 0 0 -11.763-6.428 55.817 55.817 0 0 1 -23.457 4.79 65.719 65.719 0 0 1 -12.743-1.194 65.74 65.74 0 0 1 -12.738 1.194 55.814 55.814 0 0 1 -23.457-4.79 89.815 89.815 0 0 0 -11.767 6.427c4.938 3.192 17.625 10.664 28.192 10.664 7.381 0 14.261-1.57 18.877-4.307a1.753 1.753 0 0 1 1.786 0c4.616 2.737 11.5 4.307 18.876 4.307a1.75 1.75 0 0 1 0 3.5c-7.54 0-14.669-1.557-19.769-4.293-5.1 2.736-12.23 4.293-19.77 4.293-14.507 0-31.628-12.224-32.349-12.743a1.75 1.75 0 0 1 0-2.84 90.276 90.276 0 0 1 12.056-7.07c-17.137-10.275-23.591-30.684-23.86-31.555a1.75 1.75 0 0 1 1.283-2.224 67.063 67.063 0 0 1 24.768-.207 66.738 66.738 0 0 1 .225-24.788 1.75 1.75 0 0 1 2.222-1.281 67 67 0 0 1 21.553 12.2 66.7 66.7 0 0 1 12.59-21.353 1.8 1.8 0 0 1 2.564 0 66.7 66.7 0 0 1 12.59 21.353 67 67 0 0 1 21.553-12.2 1.749 1.749 0 0 1 2.221 1.281 66.7 66.7 0 0 1 .226 24.788 67.017 67.017 0 0 1 24.768.207 1.75 1.75 0 0 1 1.283 2.224c-.27.871-6.723 21.28-23.86 31.555zm-25.051-44.18a46 46 0 0 1 1.686 12.1c0 13.63-6.66 25.38-11.231 31.842 6.783-3.169 17.703-9.634 23.933-20.419 7.757-13.436 6.071-29.826 5.19-35.386a64.864 64.864 0 0 0 -19.578 11.863zm-44.412 23.523c6.237 10.8 17.179 17.27 23.96 20.44a71.177 71.177 0 0 1 -4.3-6.9 1.749 1.749 0 1 1 3.072-1.675 67.131 67.131 0 0 0 6.668 9.959c3.539-4.373 13.2-17.724 13.2-33.242s-9.656-28.862-13.2-33.238c-3.544 4.376-13.2 17.726-13.2 33.238a1.75 1.75 0 0 1 -3.5 0 46 46 0 0 1 1.686-12.1 64.655 64.655 0 0 0 -19.575-11.872c-.88 5.557-2.568 21.949 5.189 35.39zm22.617 23.71c-7.189-3.31-18.833-10.156-25.649-21.96a46.048 46.048 0 0 1 -4.591-11.33 64.8 64.8 0 0 0 -22.887-.487c2.017 5.255 8.751 20.292 22.186 28.049 10.789 6.229 23.481 6.368 30.942 5.725zm66.693-33.777a64.752 64.752 0 0 0 -22.887.487 46.048 46.048 0 0 1 -4.592 11.327c-6.816 11.8-18.459 18.649-25.649 21.96 7.462.643 20.153.5 30.942-5.725 13.435-7.757 20.169-22.794 22.186-28.049z" fill="url(#a)"/></svg>